<svg id="Layer_1" data-name="Layer 1" xmlns="http://www.w3.org/2000/svg" viewBox="0 0 250 250"><defs><style>.cls-1{fill:#fff;fill-rule:evenodd;}</style></defs><path class="cls-1" d="M180.56,202.74C221.18,162.12,282,108.67,229,55.6c-36.12-36.12-79-21.71-124.38-6.08-16,5.52-32.09,11-48.77,14.94-22.5,6-16.33,36.34,5.09,31.08l39.29-9.07C104,85.59,106,90,103.12,92.9L5.69,190.34c-15.33,15.33,6.1,37.33,21.71,21.72l88.79-88.79c3.42-3.42,9.2,1.1,4.71,5.59L92.6,157.17c-12.53,12.53,5.18,32.47,19,18.63l32.52-32.51a3.63,3.63,0,1,1,5.13,5.13l-25.49,25.49c-11.43,11.42,6.32,31.13,20.91,16.55l31.92-31.92a3.63,3.63,0,1,1,5.13,5.13l-20.67,20.67c-15.24,15.24,8,29.91,19.49,18.4Z"/></svg>