<svg id="Layer_1" data-name="Layer 1" xmlns="http://www.w3.org/2000/svg" viewBox="0 0 250 250"><defs><style>.cls-1{fill:#fff;}</style></defs><path class="cls-1" d="M171.93,71.12a9.67,9.67,0,0,1-.39-13.28L220.86,2.42A5.25,5.25,0,0,1,228.27,2l.21.2,19.17,19.18a5.19,5.19,0,0,1-.06,7.75L192.17,78.47a9.68,9.68,0,0,1-13.28-.39Z"/><path class="cls-1" d="M215,125.52,124.49,35a34.24,34.24,0,0,0-48.36,0l-.54.54a9.77,9.77,0,0,0,0,13.81L200.66,174.41a9.75,9.75,0,0,0,13.81,0l.53-.53A34.22,34.22,0,0,0,215,125.52Z"/><path class="cls-1" d="M3.46,121.12l10.75,10.75a9.52,9.52,0,0,0,13.45,0L44.56,115a8.1,8.1,0,0,1,11.23-.41,7.87,7.87,0,0,1,.15,11.27L38.79,143a9.5,9.5,0,0,0,0,13.45L71,188.69a9.5,9.5,0,0,0,13.45,0l34.81-34.81a8.11,8.11,0,0,1,11.23-.4,7.87,7.87,0,0,1,.15,11.27L95.61,199.82a9.52,9.52,0,0,0,0,13.45h0a9.52,9.52,0,0,0,13.45,0L122.37,200a8.11,8.11,0,0,1,11.23-.41,7.87,7.87,0,0,1,.15,11.27l-13.56,13.57a9.5,9.5,0,0,0,0,13.45l8.7,8.7a9.5,9.5,0,0,0,13.45,0l50.17-50.17a9.52,9.52,0,0,0,0-13.45L67.09,57.5a9.5,9.5,0,0,0-13.45,0L3.46,107.67A9.52,9.52,0,0,0,3.46,121.12Z"/></svg>