<?xml version="1.0" encoding="utf-8"?>
<!-- Generator: Adobe Illustrator 25.0.1, SVG Export Plug-In . SVG Version: 6.00 Build 0)  -->
<svg version="1.1" id="Layer_1" xmlns="http://www.w3.org/2000/svg" xmlns:xlink="http://www.w3.org/1999/xlink" x="0px" y="0px"
	 viewBox="0 0 500 500" style="enable-background:new 0 0 500 500;" xml:space="preserve">
<style type="text/css">
	.st0{fill:#9A922E;}
	.st1{fill:#31302F;}
	.st2{fill:#FEFEFE;}
	.st3{clip-path:url(#SVGID_2_);fill:#F0F0F0;}
	.st4{clip-path:url(#SVGID_4_);fill:#F0F0F0;}
	.st5{clip-path:url(#SVGID_6_);fill:#F0F0F0;}
	.st6{fill:#7E7621;}
	.st7{fill:#7B7424;}
	.st8{fill:#908828;}
	.st9{fill:#FFFFFF;}
	.st10{clip-path:url(#SVGID_8_);fill:#F0F0F0;}
	.st11{fill:#A29A31;}
	.st12{fill:#323131;}
	.st13{fill:#F0F0F0;}
	.st14{fill:#FFFEFE;}
	.st15{fill:#383838;}
</style>
<g>
	<path class="st1" d="M88.18,309.47c-9.32,3.07-18.54,6.48-27.99,9.1c-7.56,2.09-15.17,0.58-22.5-1.91
		c-7.03-2.38-13.97-5.03-21.05-7.22c-3.3-1.02-6.02-2.81-8.74-4.74c-4.23-4.75-5.99-10.38-5.78-16.66c0.38-11.47-1-22.99,0.76-34.4
		c1.08-6.97,5.88-11.65,12.02-13.69c20.96-6.99,41.86-14.18,62.86-21.02c15.45-5.03,30.75-10.54,46.3-15.27
		c3.75-1.14,5.42-3.4,5.32-7.37c-0.16-6.38,0.14-12.77-0.06-19.15c-0.22-7.16,2.6-13.07,7.42-17.94
		c19.29-19.51,38.67-38.94,58.17-58.25c5.92-5.86,12.94-9.16,21.74-9.02c21.38,0.33,42.78,0.02,64.17,0.16
		c5.16,0.03,9.19-1.79,12.73-5.34c14.05-14.11,28.1-28.21,42.25-42.22c5.99-5.92,13.12-9.21,21.8-9.07
		c12.61,0.2,25.22,0.19,37.83-0.01c8.99-0.14,16.3,3.1,22.57,9.4c23.44,23.51,46.83,47.08,70.51,70.35
		c7.08,6.96,9.56,15.31,9.52,24.6c-0.05,13.06,0.67,26.13-0.54,39.21c-0.67,7.28-3.93,12.89-8.52,18.19
		c-6.14,7.08-14.06,12.44-19.53,20.16c-8.09,7.87-16.17,15.75-24.27,23.61c-1.37,1.33-2.73,2.68-4.19,3.9
		c-10.07,8.45-15.94,18.41-13.75,32.33c1.15,7.35-2.91,13.62-7.93,18.67c-37.94,38.12-75.99,76.13-114.05,114.13
		c-7.71,7.7-16.68,8.76-26.81,5.29c-14.2-4.87-28.57-9.26-42.83-13.94c-8.85-2.9-17.81-5.59-26.42-9.1
		c-4.94-2.01-8.01-0.7-11.4,2.72c-20.35,20.5-40.86,40.84-61.22,61.33c-10.07,10.13-17.62,9.6-28.91,5.46
		c-7.27-2.67-14.74-4.79-22.02-7.45c-7.94-2.9-12.6-9.04-13.19-17.18c-0.62-8.54-0.83-17.21,0.37-25.79
		c0.88-6.3,3.39-11.8,7.93-16.38c17.07-17.22,34.03-34.55,51.17-51.69c2.97-2.97,4.16-5.24,0.76-8.7c-2.49-2.53-3.43-5.89-3.34-9.61
		c0.17-7.66,0.09-15.32,0.03-22.98c-0.04-5-1.03-5.86-5.65-4.36C111.82,301.47,100.01,305.51,88.18,309.47z"/>
	<path class="st6" d="M6.65,304.83c-4.42-4.16-6.49-9.34-6.51-15.34c-0.04-9.26,0.32-18.53-0.11-27.77
		c-0.55-11.91,6.51-21.12,19.18-25.04c16.22-5.02,32.26-10.62,48.39-15.95c13.84-4.58,27.7-9.12,41.55-13.69
		c4.67-1.54,9.32-3.14,13.99-4.65c2.91-0.94,3.71-2.96,3.73-5.88c0.03-7.64-0.38-15.28,0.97-22.91c1.1-6.22,3.79-11.45,8.13-15.82
		c19.59-19.68,39.25-39.3,58.89-58.93c6.35-6.35,14.27-8.79,23.01-8.82c20.43-0.08,40.86-0.15,61.29,0.03
		c6.29,0.06,11.15-1.79,15.64-6.45c13.06-13.57,26.54-26.72,39.87-40.03c5.59-5.59,12.12-9.46,20.2-9.56
		c14.68-0.18,29.36-0.22,44.04-0.01c10.22,0.15,17.25,6.51,23.98,13.25c20.05,20.09,40.18,40.1,60.2,60.22
		c6.5,6.53,13.54,12.76,15.67,22.38c0.21,0.93,0.53,1.85,0.58,2.79c0.82,15.78,1,31.59-0.09,47.35c-0.37,5.37-2.53,10.51-6.24,14.73
		c-7.36,8.39-15.06,16.44-23.5,23.75c-0.36-0.4-0.54-0.87-0.56-1.4c0.6-3.19,2.91-5.23,5.03-7.38c3.81-3.86,7.81-7.53,11.7-11.29
		c7.33-7.1,10.83-15.69,10.82-25.7c-0.01-12.59,0.43-25.16-0.5-37.77c-0.58-7.78-3.84-13.6-9.08-18.83
		c-14.57-14.53-29.11-29.1-43.67-43.65c-8.69-8.69-17.45-17.3-26.04-26.08c-6.15-6.29-13.37-9.38-22.25-9.21
		c-12.12,0.24-24.25,0.28-36.37-0.01c-9.29-0.22-16.69,3.41-23.04,9.77c-13.29,13.32-26.62,26.61-39.91,39.93
		c-4.81,4.82-10.23,7.03-17.1,6.95c-20.26-0.24-40.53,0.16-60.79-0.2c-8.42-0.15-15.39,2.48-21.21,8.17
		c-19.95,19.53-39.69,39.28-59.21,59.23c-4.19,4.28-6.49,9.74-6.26,16.07c0.21,5.58,0.08,11.17,0.03,16.75
		c-0.07,7.52-1.25,9.49-8.51,11.93c-16.17,5.44-32.31,10.96-48.53,16.25c-19.1,6.23-38.12,12.71-57.17,19.08
		c-7.62,2.55-12.46,7.91-12.91,16.12c-0.61,11.15-0.42,22.32-0.05,33.48c0.11,3.38,1.2,6.57,2.83,9.56
		c0.75,1.38,1.71,2.75,1.24,4.48C7.56,305.22,7.12,305.24,6.65,304.83z"/>
	<path class="st7" d="M469.41,217.35c0.03,0.38,0.06,0.76,0.08,1.15c-7.58,8.85-16.36,16.54-24.4,24.95
		c-1.65,1.73-3.21,3.61-5.1,5.04c-8.45,6.4-11.82,14.52-10.9,25.29c0.83,9.72-3.15,18.06-10.3,25.14
		c-29.68,29.39-59.14,59-88.66,88.55c-7.89,7.89-15.63,15.92-23.56,23.78c-8.48,8.4-18.18,9.9-29.41,5.8
		c-14.42-5.26-29.11-9.78-43.68-14.63c-8.56-2.85-17.2-5.48-25.63-8.65c-3.71-1.4-5.9-0.22-8.36,2.26
		c-20.34,20.45-40.89,40.71-61.09,61.3c-7.28,7.42-15.74,10.27-25.53,8.08c-7.05-1.58-13.8-4.52-20.67-6.89
		c-2.7-0.93-5.42-1.83-8.04-2.95c-8.39-3.57-13.12-9.81-13.25-19.07c-0.1-7.5,0.05-15,0.13-22.49c0.09-8.61,3.75-15.67,9.7-21.65
		c16.41-16.53,32.8-33.08,49.34-49.48c2.71-2.69,3.59-4.5,0.84-7.9c-3.13-3.87-4.3-8.77-4.21-13.87c0.11-5.9-0.21-11.83,0.3-17.7
		c0.4-4.58-1.45-4.97-4.93-3.78c-9.29,3.18-18.57,6.4-27.87,9.56c-0.89,0.3-1.87,0.32-2.81,0.47c-0.94,0.39-1.9,0.5-2.88,0.19
		c-1.01-2.49,1.25-2.65,2.48-3.06c10.44-3.48,20.8-7.24,31.34-10.41c6.11-1.84,8.54,0.27,8.67,6.85c0.13,6.7,0.12,13.41,0,20.11
		c-0.07,3.97,0.83,7.49,3.11,10.8c2.95,4.29,2.74,5.85-0.84,9.63c-3.62,3.83-7.36,7.54-11.15,11.19
		c-13.91,13.4-26.76,27.83-40.43,41.46c-5.77,5.75-7.69,13.11-8.05,20.95c-0.26,5.58-0.27,11.18-0.01,16.75
		c0.43,9.16,4.84,15.83,13.49,19.1c9.4,3.56,18.96,6.7,28.67,9.28c7.02,1.86,12.93-0.99,17.84-5.76
		c11.1-10.79,21.94-21.85,32.89-32.78c9.83-9.81,19.72-19.55,29.42-29.49c4.27-4.38,8.62-5.61,14.61-3.49
		c22.56,7.96,45.39,15.18,68.08,22.76c10.06,3.36,18.78,1.96,26.37-5.67c6.86-6.9,13.77-13.76,20.66-20.65
		c29.8-29.79,59.53-59.64,89.43-89.33c7.32-7.26,11.98-15.34,10.66-25.93c-1.14-9.12,1.96-16.18,8.58-22.6
		c10.53-10.21,20.96-20.54,31.33-30.92C466.67,217.65,467.73,216.52,469.41,217.35z"/>
	<path class="st8" d="M88.18,309.47c1.06,0.06,2.13,0.12,3.2,0.18c-15.04,4.94-29.36,13.85-46.04,10.49
		c-11.74-2.37-22.92-7.02-34.15-11.2c-1.77-0.66-3.03-2.71-4.53-4.11c0.42-0.04,0.83-0.09,1.25-0.14c1.15-0.48,2.19-0.07,3.2,0.41
		c10.1,4.79,20.85,7.71,31.46,11.02c6.69,2.09,13.5,1.91,20.21-0.02c6.42-1.85,12.77-3.89,19.07-6.12
		C83.85,309.28,85.94,307.94,88.18,309.47z"/>
	<path class="st9" d="M266.5,103.89c16.28,0,32.56,0,48.85,0c0.96,0,1.92-0.04,2.87,0c2.84,0.14,5.49-0.69,5.58-3.79
		c0.09-3.14-2.5-4.03-5.37-4c-3.99,0.04-7.98,0.02-11.97-0.03c-1.07-0.01-2.45,0.34-2.94-0.99c-0.5-1.34,0.9-1.91,1.62-2.64
		c13.3-13.34,26.61-26.66,39.97-39.94c3.53-3.51,7.79-5.27,12.88-5.23c12.61,0.1,25.22,0.07,37.83,0.01
		c5.07-0.02,9.37,1.81,12.87,5.31c45.72,45.68,52.02,52.06,71.66,71.71c3.57,3.58,5.27,7.9,5.28,12.89
		c0.03,12.77,0.03,25.54,0.02,38.3c0,5.2-1.93,9.48-5.67,13.19c-17.55,17.43-35,34.98-52.52,52.44c-0.92,0.91-1.64,2.83-3.36,1.99
		c-1.55-0.75-0.9-2.56-0.94-3.92c-0.08-3.35,0.04-6.7-0.05-10.05c-0.08-2.86-0.64-5.82-4.29-5.67c-3.33,0.15-3.63,2.86-3.62,5.64
		c0.05,15-0.1,30.01,0.07,45.01c0.07,5.64-1.76,10.24-5.67,14.15c-37.32,37.32-74.7,74.58-111.88,112.04
		c-4.91,4.95-9.85,5.57-16,3.49c-22.88-7.72-45.81-15.31-68.73-22.93c-4.79-1.59-5.01-2.44-1.4-6.05c2.81-2.82,5.73-5.54,8.42-8.48
		c2.04-2.23,4.16-2.38,6.88-1.43c11.25,3.93,22.53,7.78,33.84,11.53c2.43,0.81,5.4,1.39,6.56-1.82c1.36-3.77-2.1-4.7-4.44-5.53
		c-8.99-3.17-18.08-6.02-27.14-8.99c-0.76-0.25-1.55-0.4-2.29-0.66c-3.15-1.12-4.49-2.22-1.25-5.33
		c10.33-9.95,20.37-20.19,30.51-30.33c1.35-1.35,2.68-2.74,3.96-4.16c1.36-1.51,1.51-3.27,0.21-4.77c-1.42-1.65-3.38-1.77-5.18-0.6
		c-1.05,0.68-1.87,1.72-2.77,2.62c-43.32,43.29-86.67,86.56-129.93,129.93c-4.55,4.57-8.91,7.01-15.63,4.16
		c-6.99-2.97-14.46-4.8-21.71-7.18c-4.92-1.62-7.65-4.64-7.27-10.26c0.35-5.08,0.33-10.23-0.01-15.31
		c-0.49-7.27,2.4-12.8,7.43-17.81c41.59-41.44,83.09-82.97,124.62-124.47c2.37-2.36,4.66-4.73,5.8-8.05
		c2.11-6.1-1.07-11.28-7.41-12.17c-5.81-0.81-11.07,1.17-16.25,3.09c-28.83,10.69-57.96,20.48-87.21,29.94
		c-17.53,5.67-34.97,11.63-52.41,17.56c-3.62,1.23-7.35,1.6-10.83,0.54c-9.57-2.92-18.97-6.38-28.48-9.49
		c-3.97-1.3-5.47-4.06-5.47-7.96c0-10.05,0-20.11,0-30.16c0-4.15,1.77-6.75,5.92-8.11c16.31-5.34,32.55-10.89,48.82-16.34
		c17.93-6.01,35.87-11.99,53.81-17.97c17.94-5.98,35.89-11.94,53.84-17.9c17.34-5.75,34.72-11.39,52.01-17.29
		c6.82-2.33,10.67-7.41,10.99-14.69c0.26-6.05,0.15-12.13,0.07-18.19c-0.03-2.5-0.58-5-3.85-4.96c-3.2,0.04-3.76,2.3-3.75,4.98
		c0.04,5.59-0.17,11.18,0.03,16.76c0.17,4.67-1.78,7.53-6.16,8.98c-10.71,3.54-21.39,7.17-32.09,10.73
		c-16.13,5.37-32.31,10.59-48.37,16.15c-3.75,1.3-4.47,0.1-4.43-3.2c0.08-6.38,0.14-12.77,0.02-19.15
		c-0.09-4.77,1.66-8.72,4.94-12.01c19.39-19.44,38.81-38.84,58.24-58.24c3.58-3.57,7.92-4.97,12.99-4.93
		c16.44,0.13,32.88,0.05,49.32,0.05V103.89z"/>
	<path class="st9" d="M141.01,311.74c0-1.75,0.25-3.55-0.04-5.26c-2.04-12.12,8.87-23.09,19.65-26.35
		c13.53-4.09,26.98-8.49,40.28-13.27c3.33-1.2,6.44-3.22,10.03-3.81c1.32-0.22,2.99-0.76,3.74,1.08c0.6,1.48,0.13,2.77-0.99,3.9
		c-6.42,6.43-12.86,12.85-19.22,19.33c-2.14,2.18-4.45,0.87-6.74,0.68c-1.42-0.12-2.98-0.29-3.92,1.09c-1.01,1.47-1,3.52,0.12,4.48
		c2.58,2.23,0.88,3.42-0.6,4.9c-10.04,10.03-20.14,20-30.07,30.13c-2.1,2.14-4.22,2.73-6.84,1.71c-2.81-1.09-5.09-2.87-5.21-6.18
		c-0.15-4.14-0.04-8.3-0.04-12.44L141.01,311.74z"/>
	<g>
		<defs>
			<path id="SVGID_7_" d="M451.85,89.08l-326.09,324.8c0,0-5.3,4.13-5.29,12.16c0.01,6.08,0,34.09,0,34.09
				c2.78,5.22,141.14-138.93,161.04-159.69c1.28-1.34,3.42-1.37,4.71-0.03c2.4,2.47,4.93,4.63,6.23,9.59
				c1.45,9.73,5.91,95.49,5.91,95.49l14.01-19.88c0-0.01,64.28-47.88,96.06-86.83c14.77-18.1,11.39-44.88,11.39-44.88
				c0.76-1.42,61.05-42.56,69.3-68.83c4.61-14.7,3.25-36.97,0-53.95C486.71,118.5,454.31,90.75,451.85,89.08z"/>
		</defs>
		<clipPath id="SVGID_2_">
			<use xlink:href="#SVGID_7_"  style="overflow:visible;"/>
		</clipPath>
		<path class="st3" d="M266.5,103.89c16.28,0,32.56,0,48.85,0c0.96,0,1.92-0.04,2.87,0c2.84,0.14,5.49-0.69,5.58-3.79
			c0.09-3.14-2.5-4.03-5.37-4c-3.99,0.04-7.98,0.02-11.97-0.03c-1.07-0.01-2.45,0.34-2.94-0.99c-0.5-1.34,0.9-1.91,1.62-2.64
			c13.3-13.34,26.61-26.66,39.97-39.94c3.53-3.51,7.79-5.27,12.88-5.23c12.61,0.1,25.22,0.07,37.83,0.01
			c5.07-0.02,9.37,1.81,12.87,5.31c45.72,45.68,52.02,52.06,71.66,71.71c3.57,3.58,5.27,7.9,5.28,12.89
			c0.03,12.77,0.03,25.54,0.02,38.3c0,5.2-1.93,9.48-5.67,13.19c-17.55,17.43-35,34.98-52.52,52.44c-0.92,0.91-1.64,2.83-3.36,1.99
			c-1.55-0.75-0.9-2.56-0.94-3.92c-0.08-3.35,0.04-6.7-0.05-10.05c-0.08-2.86-0.64-5.82-4.29-5.67c-3.33,0.15-3.63,2.86-3.62,5.64
			c0.05,15-0.1,30.01,0.07,45.01c0.07,5.64-1.76,10.24-5.67,14.15c-37.32,37.32-74.7,74.58-111.88,112.04
			c-4.91,4.95-9.85,5.57-16,3.49c-22.88-7.72-45.81-15.31-68.73-22.93c-4.79-1.59-5.01-2.44-1.4-6.05c2.81-2.82,5.73-5.54,8.42-8.48
			c2.04-2.23,4.16-2.38,6.88-1.43c11.25,3.93,22.53,7.78,33.84,11.53c2.43,0.81,5.4,1.39,6.56-1.82c1.36-3.77-2.1-4.7-4.44-5.53
			c-8.99-3.17-18.08-6.02-27.14-8.99c-0.76-0.25-1.55-0.4-2.29-0.66c-3.15-1.12-4.49-2.22-1.25-5.33
			c10.33-9.95,20.37-20.19,30.51-30.33c1.35-1.35,2.68-2.74,3.96-4.16c1.36-1.51,1.51-3.27,0.21-4.77c-1.42-1.65-3.38-1.77-5.18-0.6
			c-1.05,0.68-1.87,1.72-2.77,2.62c-43.32,43.29-86.67,86.56-129.93,129.93c-4.55,4.57-8.91,7.01-15.63,4.16
			c-6.99-2.97-14.46-4.8-21.71-7.18c-4.92-1.62-7.65-4.64-7.27-10.26c0.35-5.08,0.33-10.23-0.01-15.31
			c-0.49-7.27,2.4-12.8,7.43-17.81c41.59-41.44,83.09-82.97,124.62-124.47c2.37-2.36,4.66-4.73,5.8-8.05
			c2.11-6.1-1.07-11.28-7.41-12.17c-5.81-0.81-11.07,1.17-16.25,3.09c-28.83,10.69-57.96,20.48-87.21,29.94
			c-17.53,5.67-34.97,11.63-52.41,17.56c-3.62,1.23-7.35,1.6-10.83,0.54c-9.57-2.92-18.97-6.38-28.48-9.49
			c-3.97-1.3-5.47-4.06-5.47-7.96c0-10.05,0-20.11,0-30.16c0-4.15,1.77-6.75,5.92-8.11c16.31-5.34,32.55-10.89,48.82-16.34
			c17.93-6.01,35.87-11.99,53.81-17.97c17.94-5.98,35.89-11.94,53.84-17.9c17.34-5.75,34.72-11.39,52.01-17.29
			c6.82-2.33,10.67-7.41,10.99-14.69c0.26-6.05,0.15-12.13,0.07-18.19c-0.03-2.5-0.58-5-3.85-4.96c-3.2,0.04-3.76,2.3-3.75,4.98
			c0.04,5.59-0.17,11.18,0.03,16.76c0.17,4.67-1.78,7.53-6.16,8.98c-10.71,3.54-21.39,7.17-32.09,10.73
			c-16.13,5.37-32.31,10.59-48.37,16.15c-3.75,1.3-4.47,0.1-4.43-3.2c0.08-6.38,0.14-12.77,0.02-19.15
			c-0.09-4.77,1.66-8.72,4.94-12.01c19.39-19.44,38.81-38.84,58.24-58.24c3.58-3.57,7.92-4.97,12.99-4.93
			c16.44,0.13,32.88,0.05,49.32,0.05V103.89z"/>
	</g>
</g>
</svg>
