<?xml version="1.0" encoding="utf-8"?>
<!-- Generator: Adobe Illustrator 25.0.1, SVG Export Plug-In . SVG Version: 6.00 Build 0)  -->
<svg version="1.1" id="Layer_1" xmlns="http://www.w3.org/2000/svg" xmlns:xlink="http://www.w3.org/1999/xlink" x="0px" y="0px"
	 viewBox="0 0 500 500" style="enable-background:new 0 0 500 500;" xml:space="preserve">
<style type="text/css">
	.st0{fill:#9A922E;}
	.st1{fill:#31302F;}
	.st2{fill:#FEFEFE;}
	.st3{clip-path:url(#SVGID_2_);fill:#F0F0F0;}
	.st4{clip-path:url(#SVGID_4_);fill:#F0F0F0;}
	.st5{clip-path:url(#SVGID_6_);fill:#F0F0F0;}
	.st6{fill:#7E7621;}
	.st7{fill:#7B7424;}
	.st8{fill:#908828;}
	.st9{fill:#FFFFFF;}
	.st10{clip-path:url(#SVGID_8_);fill:#F0F0F0;}
	.st11{fill:#A29A31;}
	.st12{fill:#323131;}
	.st13{fill:#F0F0F0;}
	.st14{fill:#FFFEFE;}
	.st15{fill:#383838;}
</style>
<g>
	<path class="st11" d="M174.55,88.4c20.94,0,41.89-0.1,62.83,0.05c7.94,0.06,14.27-2.12,20.04-8.19
		c15.2-15.97,31.11-31.27,46.66-46.92c7.69-7.74,16.85-11.57,27.77-11.5c14.15,0.09,28.32,0.43,42.45-0.11
		c12.2-0.46,22.11,4.02,30.42,12.25c27.73,27.48,55.31,55.12,82.85,82.8c8.34,8.38,12.41,18.57,12.18,30.54
		c-0.22,11.5-0.74,23.07,0.12,34.51c1.25,16.7-5.52,29.4-16.95,40.7c-20.53,20.28-40.7,40.93-61.2,61.24
		c-3.39,3.36-4.89,6.8-4.63,11.46c0.54,9.78-0.18,19.36-4.26,28.56c-3.08,6.96-8.56,11.85-13.67,17.01
		c-19.59,19.81-39.37,39.43-59.07,59.12c-13.58,13.57-27.15,27.15-40.74,40.7c-9.06,9.03-18.64,17.61-27.14,27.14
		c-11.19,12.55-24.14,12.31-38.42,7.39c-11.76-4.05-23.36-8.54-35.36-11.94c-8.43-2.39-16.6-5.67-24.9-8.5
		c-11.27-3.85-22.5-7.82-33.84-11.44c-14-4.47-27.94-9.13-41.84-13.91c-7.83-2.69-14.96-5.5-19.41-13.1
		c-3.81-6.5-4.5-13.47-4.2-20.66c0.19-4.46-0.68-7.61-4.99-10.28c-7.8-4.82-10.86-12.71-11.06-21.68c-0.15-6.79-0.19-13.59,0-20.37
		c0.09-3.42-1.2-5.59-4.02-7.45c-8.06-5.32-12.52-12.44-12.05-22.63c0.49-10.73,0.03-21.5,0.13-32.25c0.03-2.91-0.78-4.77-3.46-6.4
		c-8.54-5.2-13.86-12.57-13.64-23.03c0.06-2.86-1.41-3.75-3.92-4.51c-9.28-2.81-16.35-8.28-19.87-17.66
		c-0.13-0.35-0.52-0.66-0.52-0.99c-0.24-21.63-5.46-43.84,13.76-61.77c22.6-21.1,44-43.49,65.73-65.51
		c8.43-8.54,18.5-12.58,30.27-12.63C131.9,88.34,153.22,88.4,174.55,88.4z"/>
	<path class="st12" d="M173.17,90.53c21.52,0,43.04-0.22,64.55,0.11c8.17,0.13,14.33-2.56,19.98-8.42
		c14.8-15.33,30.17-30.11,45.03-45.38c9.08-9.33,19.7-13.96,32.78-13.63c13.01,0.33,26.04,0.11,39.07,0.06
		c10.89-0.04,20.18,3.56,27.94,11.34c27.98,28.07,55.97,56.12,84.1,84.04c7.43,7.38,10.78,16.27,10.93,26.41
		c0.23,14.9,0.14,29.82,0.04,44.72c-0.07,10.28-3.96,18.98-11.25,26.26c-21.51,21.45-42.87,43.06-64.49,64.4
		c-5.49,5.41-8.08,11.44-7.87,19.11c0.24,8.97,1.06,18.1-4.46,26.19c-2.34,3.44-4.79,6.73-7.73,9.67
		c-43.64,43.63-87.33,87.22-130.88,130.94c-9.64,9.68-20.3,12.44-33.35,7.86c-25.82-9.07-51.75-17.79-77.71-26.45
		c-21.36-7.12-42.83-13.91-64.23-20.9c-12.26-4.01-18.88-13.2-19.07-26.26c-0.04-2.45-0.16-4.92,0-7.36
		c0.26-3.96-1.08-6.51-4.73-8.7c-7.38-4.44-11.61-11.03-11.36-20.09c0.2-7.16-0.14-14.34,0.05-21.51c0.1-3.86-1.3-6.22-4.68-8.18
		c-8.09-4.67-12.41-11.75-12.37-21.29c0.04-10.94-0.12-21.89,0.05-32.83c0.06-3.55-0.78-6.11-4.08-7.84
		c-8.5-4.47-12.12-12.1-12.68-21.24c-0.23-3.72-1.92-5.59-5.1-6.44c-14.37-3.82-20.86-14.52-20-29.35
		c0.51-8.82-0.91-17.71,1.25-26.49c1.61-6.56,4.53-12.27,9.31-17.05c24.02-24,48.02-48.03,72.04-72.03
		c6.57-6.56,14.52-9.7,23.82-9.68c21.7,0.05,43.41,0.02,65.11,0.02C173.17,90.55,173.17,90.54,173.17,90.53z"/>
	<path class="st13" d="M21.84,229.09c-3.58-0.79-5.03-3.91-5.09-6.67c-0.24-10.32-1.5-20.68,0.77-30.97
		c0.85-3.87,2.88-6.91,5.58-9.61c23.34-23.36,46.7-46.7,70.04-70.06c4.76-4.77,10.35-6.92,17.22-6.9
		c57.18,0.13,114.37,0.07,171.55,0.03c3.77,0,9.32,1.16,9.17-4.48c-0.15-5.47-5.7-4.12-9.46-4.26c-3.77-0.14-7.55-0.05-11.32-0.09
		c-1.12-0.01-2.39,0.1-2.99-1.12c-0.64-1.29,0.38-2.02,1.19-2.83c16.41-16.38,32.69-32.88,49.27-49.08
		c3.5-3.42,8.27-5.07,13.42-5.06c15.1,0.04,30.2-0.01,45.29,0.03c5.92,0.01,11.06,2.21,15.21,6.35
		c28.28,28.25,56.51,56.55,84.74,84.84c4.35,4.36,6.38,9.7,6.4,15.8c0.05,14.72,0.07,29.44,0.01,44.15c-0.03,6.5-2.39,12-7.08,16.66
		c-20.74,20.62-41.37,41.36-62.08,62.01c-1.11,1.1-2.04,3.38-3.99,2.38c-1.65-0.85-1.12-3.04-1.14-4.7
		c-0.07-4.34,0.05-8.68-0.09-13.02c-0.1-2.99-0.85-5.91-4.66-5.8c-3.72,0.11-4.42,2.81-4.42,5.96c0.02,17.93-0.13,35.85,0.04,53.78
		c0.07,6.85-2.25,12.31-7.07,17.13c-44.52,44.45-89,88.93-133.38,133.52c-5.46,5.49-11.22,4.79-17.63,2.64
		c-40.07-13.41-80.18-26.74-120.27-40.1c-7.12-2.37-14.23-4.82-21.36-7.16c-5.02-1.64-7.98-4.8-8.03-10.28
		c-0.02-2.45-0.16-4.9-0.15-7.36c0.01-9.39,0.36-9.53,9.07-6.61c27.23,9.14,54.52,18.13,81.75,27.25c11.04,3.7,22,7.6,33.02,11.35
		c1.41,0.48,2.94,0.75,4.43,0.81c2.14,0.09,4.25-0.2,4.76-2.91c0.46-2.45-0.65-3.99-2.91-4.79c-6.73-2.38-13.43-4.83-20.2-7.1
		c-24.22-8.12-48.46-16.18-72.69-24.26c-15.51-5.17-31-10.4-46.53-15.5c-4.72-1.55-7.18-4.47-7.14-9.52
		c0.07-7.74,0-15.47,0.01-23.21c0-3.1,0.26-4.82,4.52-3.37c35.03,11.92,70.16,23.54,105.25,35.24c9.97,3.33,19.95,6.66,29.93,9.95
		c1.25,0.41,2.56,0.76,3.86,0.85c2.43,0.16,5.22,0.58,5.88-2.77c0.6-3.04-1.42-4.38-3.98-5.24c-16.91-5.68-33.81-11.42-50.73-17.08
		c-21.2-7.09-42.42-14.11-63.62-21.18c-13.54-4.52-27.06-9.09-40.6-13.61c-4.82-1.61-7.51-4.79-7.52-9.97
		c-0.02-11.51,0.11-23.02-0.07-34.53c-0.06-4.07,1.61-5.12,5.14-3.94c15.85,5.3,31.84,10.26,47.5,16.07
		c23.87,8.85,47.91,17.15,72.14,24.96c11.08,3.57,22.04,7.51,33.08,11.22c1.4,0.47,2.92,0.76,4.39,0.84
		c2.08,0.12,3.73-0.82,4.25-2.95c0.51-2.09-0.22-3.78-2.32-4.55c-6.7-2.43-13.39-4.89-20.15-7.15
		c-15.68-5.23-31.77-9.43-47.01-15.71c-26.56-10.95-54.22-18.5-81.23-28.01c-7.97-2.81-16.04-5.33-24.06-8
		c-5.7-1.9-8.45-5.8-8.4-11.89c0.1-14.34-0.04-28.68,0.06-43.02c0.04-6.47,2.31-12.04,7.03-16.69
		c11.16-10.98,22.33-21.95,33.18-33.23c4.57-4.75,9.74-5.74,15.43-3.86c28.53,9.42,56.97,19.09,85.46,28.62
		c2.98,1,6.54,2.64,8.23-1.62c1.74-4.38-2.27-5.58-5.02-6.53c-15.45-5.33-30.99-10.41-46.51-15.53
		c-13.74-4.53-27.54-8.87-41.23-13.56c-7.61-2.61-14.39-1.11-19.88,4.17c-12.77,12.29-25.25,24.89-37.61,37.6
		c-5,5.14-7.58,11.56-7.49,18.92c0.09,7.36,0.03,14.72-0.01,22.08c-0.03,5.86-1.15,6.6-6.68,4.39c-1.55-0.62-3.02-1.44-4.53-2.16
		c5.53-2.05,6.78-6.24,6.12-11.63c-0.93-7.65,1.16-14.99,2.84-22.32c1.16-5.06,4-9.36,7.63-13.05
		c11.77-11.98,23.71-23.79,35.6-35.65c7.78-7.78,17.35-8.28,26.89-5.38c22.18,6.75,44.23,13.97,66.03,21.9
		c6.39,2.32,13.03,3.82,19.43,6.08c1.97,0.7,3.94,1.34,5.48,2.83c2.38,2.29,3.25,5.07,2.41,8.25c-0.88,3.33-3.32,4.89-6.6,5.31
		c-2.86,0.37-5.62-0.08-8.35-1.02c-27.82-9.56-55.93-18.26-83.64-28.14c-3.58-1.28-6.5-0.96-9.36,1.64
		c-12.02,10.91-23.01,22.85-34.58,34.21c-4.27,4.2-6.36,9.62-6.28,15.88c0.16,12.83-0.01,25.66,0.07,38.49
		c0.05,7.56,1.24,9.29,8.16,11.68c25.3,8.76,50.76,17.05,76.21,25.34c14.17,4.61,28.09,9.9,41.98,15.26
		c8.46,3.27,17.09,6,25.79,8.47c8.38,2.38,16.29,5.96,24.45,8.91c4.32,1.56,6.03,4.97,5.33,9.46c-0.75,4.85-4.59,5.09-8.23,4.9
		c-10.51-0.57-20.12-4.79-29.88-8.15c-21.38-7.38-42.88-14.41-64.39-21.39c-3.95-1.28-7.88-2.48-11.48-4.7
		c-4.37-2.7-9.41-3.78-14.27-5.32c-10.25-3.24-20.57-6.23-30.59-10.19c-4.53-1.79-5.96-0.77-6.05,4.02
		c-0.18,8.68-0.2,17.36,0.04,26.03c0.14,5.13,2.53,7.73,7.67,9.58c18.63,6.71,37.45,12.87,56.25,18.96
		c20.44,6.62,40.67,13.86,61.22,20.16c10.97,3.36,21.71,7.57,32.74,10.81c2.6,0.77,4.89,2.21,6.1,4.73
		c1.59,3.32,1.34,6.64-0.93,9.61c-2.39,3.12-5.63,3.71-9.14,2.35c-15.48-6.02-31.5-10.43-47.19-15.83
		c-22.46-7.73-44.92-15.46-67.65-22.39c-6.31-1.92-12.28-4.83-18.66-6.6c-3.29-0.91-4.62-0.01-4.64,3.3
		c-0.03,5.47-0.19,10.94,0.08,16.41c0.22,4.4,2.93,6.57,6.87,7.92c26.93,9.23,54.05,17.89,80.99,27.08
		c18.2,6.21,36.7,11.53,54.65,18.46c5.43,2.1,7.72,5.9,6.3,10.93c-1.28,4.54-4.9,6.05-10.98,4.46
		c-19.17-5.03-37.6-12.34-56.42-18.46c-18.09-5.88-36.25-11.61-54.15-18.12c-3.02-1.1-7.3-4.86-9.92-0.49
		c-3.1,5.15,0.49,13.18,6.17,15c5.39,1.73,10.57,4.03,15.98,5.68c29.23,8.88,57.83,19.66,87,28.71
		c12.43,3.86,24.39,9.08,36.99,12.41c2.01,0.53,3.94,1.22,6.06,1.22c2.5-0.01,3.88-1.04,4.03-3.64c0.12-2.08,0.12-4.15,0.12-6.22
		c0-54.72,0.15-109.44-0.12-164.15c-0.06-11.37,3.71-20.31,11.69-28.26c53.08-52.86,106.01-105.88,158.98-158.85
		c7.18-7.18,7.27-7.29,0.14-14.1c-11.46-10.95-22.27-22.55-33.7-33.53c-3.5-3.37-7.15-5.04-12.04-4.98
		c-14.53,0.17-29.07,0.37-43.59-0.07c-7.23-0.22-12.79,2.19-17.64,7.19c-9.98,10.29-20.38,20.17-30.32,30.5
		c-3.39,3.52-7.35,6.48-10.83,11.16c4.04,0.97,7.73,0.32,11.3,0.65c4.18,0.39,7.21,2.14,8.16,6.5c1.07,4.91-0.92,8.1-5.8,9.26
		c-2.97,0.71-6.01,0.54-9.02,0.54c-54.54,0.01-109.08,0.15-163.61-0.13c-9.65-0.05-17.01,3.24-23.58,9.99
		c-19.99,20.54-40.2,40.86-60.81,60.78c-7.47,7.22-12.14,15.13-10.87,25.98c0.83,7.04-1.11,14.35,2.07,21.2
		C22.92,227.37,22.61,228.36,21.84,229.09z"/>
	<path class="st14" d="M21.84,229.09c-6.05-11.33-3.23-23.54-2.68-35.27c0.37-7.81,7.69-12.59,12.96-17.91
		c10.6-10.68,21.24-21.32,31.91-31.93c10.54-10.48,21.1-20.94,31.71-31.34c4.35-4.26,9.68-5.98,15.78-5.97
		c56.81,0.05,113.62,0.03,170.43,0.02c1.88,0,3.79,0.05,5.65-0.17c3.42-0.42,5.46-1.99,5.15-5.93c-0.3-3.77-1.94-6.17-5.76-6.32
		c-5.25-0.21-10.51-0.05-16.2-0.05c0.33-1.2,0.3-2.08,0.73-2.51c15.61-15.53,31.24-31.02,46.9-46.5c3.25-3.21,7.14-4.33,11.78-4.27
		c16.42,0.22,32.84,0.19,49.26,0.02c3.91-0.04,6.71,1.21,9.44,3.96c12.87,12.93,25.89,25.7,38.92,38.47
		c3.46,3.39,4.24,5.82,0.11,9.92c-55.01,54.68-109.79,109.6-164.69,164.4c-6.21,6.2-9.24,13.36-9.22,22.22
		c0.12,56.99,0.06,113.98,0.06,170.97c0,7.81-2.82,10.01-10.25,7.57c-9.9-3.25-19.7-6.8-29.58-10.11
		c-9.11-3.05-18.44-5.54-27.38-9.02c-14.01-5.46-28.68-8.91-42.61-14.66c-8.02-3.31-16.56-5.38-24.93-7.77
		c-6.59-1.88-12.83-4.71-19.37-6.76c-5.71-1.79-9.34-15.22-6.29-20.19c0.72-1.17,1.82-1.38,2.93-1.02
		c5.13,1.65,10.29,3.21,15.32,5.13c9.52,3.63,19.33,6.35,28.98,9.56c8.28,2.76,16.41,5.99,24.81,8.42
		c12.08,3.5,23.66,8.51,35.78,11.97c5.34,1.52,10.78,3.05,15.88,5.06c4.35,1.72,6.84,0.67,8.12-2.71c1.44-3.79,0.48-7.82-4.08-9.11
		c-13.91-3.95-27.51-8.93-41.24-13.38c-10.89-3.53-21.75-7.45-32.66-11.06c-13.89-4.6-27.62-9.7-41.77-13.61
		c-8.01-2.21-15.54-6.05-23.67-8.22c-3.06-0.82-5.89-3.88-5.76-8.23c0.2-6.6,0.14-13.21,0.02-19.81c-0.08-4.33,2.08-4.68,5.43-3.51
		c7.18,2.51,14.35,5.03,21.55,7.47c8.93,3.03,17.96,5.8,26.82,9.02c16.92,6.16,34.21,11.2,51.17,17.28
		c12.34,4.43,25.07,7.87,37.31,12.71c3.13,1.24,5.29-0.88,6.43-3.24c1.41-2.92,1.63-6.02-1.27-8.72c-3.28-3.05-7.7-2.92-11.48-4.11
		c-14.87-4.69-29.47-10.17-44.28-15.02c-12.34-4.04-24.55-8.53-37-12.19c-14.06-4.13-27.69-9.55-41.87-13.4
		c-8-2.17-15.45-6.34-23.73-8.14c-3.88-0.84-4.7-4.89-4.79-8.2c-0.29-10.56-0.25-21.13-0.11-31.7c0.07-5.62,4.93-4.12,7.09-3.15
		c13.79,6.21,29,8.35,42.6,14.68c16.36,7.61,33.72,12.25,50.64,18.05c17.52,6.01,35.06,12.09,52.78,17.56
		c1.92,0.59,4.13,0.41,6.19,0.31c2.42-0.12,5.52,0.99,6.03-3.18c0.48-3.93-0.82-6.73-4.56-8c-14.61-4.95-29.32-9.61-43.86-14.74
		c-15.02-5.31-29.73-11.5-44.86-16.44c-10.38-3.39-20.97-6.24-31.18-10.1c-14.43-5.46-29.71-8.39-43.73-15
		c-1.64-0.77-3.75-0.49-5.45-1.18c-8.07-3.27-8.68-4.32-8.68-13.53c0-12.27,0.39-24.55-0.13-36.79c-0.38-8.9,3.06-15.6,9.17-21.53
		c10.66-10.36,21.31-20.73,31.75-31.31c3.87-3.91,7.42-4.24,12.59-2.31c11.12,4.16,22.41,7.9,33.83,11.28
		c8.36,2.47,16.5,5.76,24.83,8.46c8.84,2.86,17.53,6.16,26.33,9.13c1.37,0.46,2.99,0.21,4.5,0.27c3.39,0.15,6.05-0.82,6.54-4.65
		c0.51-3.97-1.43-6.59-5.1-7.71c-7.6-2.32-15.36-4.13-22.77-7.07c-16.75-6.64-34.27-11-51.15-17.34
		c-7.61-2.86-15.52-6.13-24.31-5.42c-5.61,0.45-10.15,2.16-14.03,6.05c-11.87,11.88-23.81,23.7-35.6,35.66
		c-4.55,4.62-6.7,10.23-8.3,16.73c-2.03,8.27-1.65,16.37-1.72,24.55c-0.06,6.88-5.23,3.45-8.15,4.55
		C21.8,229.08,21.84,229.09,21.84,229.09z"/>
	<path class="st15" d="M193.97,231.23c0.78-0.8,1.57-1.59,2.35-2.39c3.13-3.63,6.31-7.21,10.26-10.01l-0.01,0.01
		c7.4-7.48,9.48-16.56,9.14-26.86c-0.47-14.31-0.12-28.64-0.12-42.97c0-1.51-0.23-3.06,0.13-4.51c0.65-2.61,2.32-4.4,5.14-4.32
		c2.97,0.07,4.31,1.96,4.33,4.84c0.03,3.96,0.01,7.92,0.01,11.87c0,14.89-0.26,29.78,0.1,44.66c0.2,8.08-2.48,14.85-7.68,20.56
		c-6.46,7.1-13.36,13.79-20.42,20.32c-6.64,6.14-14.51,6.83-22.16,4.19c-20.01-6.92-40.26-13.09-60.19-20.24
		c-6.17-2.22-12.58-3.64-18.67-6.14c-3.4-1.4-6.51-2.61-5.4-7.05c0.98-3.9,3.75-5.11,8.63-3.3c18.09,6.73,36.71,11.9,54.85,18.51
		c7.9,2.88,16.03,5.1,23.95,7.93C184.72,238.64,189.43,235.13,193.97,231.23z"/>
	<path class="st13" d="M193.97,231.23c-4.86,6.72-9.19,8.28-17.51,5.61c-13.06-4.18-26.05-8.61-39.05-12.98
		c-13-4.37-25.99-8.74-38.95-13.22c-3.25-1.12-5.81-0.45-6.9,2.72c-1.16,3.34,1.69,4.83,4.11,5.71c7.6,2.75,15.29,5.22,22.97,7.75
		c19.08,6.3,38.2,12.5,57.25,18.9c8.18,2.75,15.29,1.09,21.38-4.68c6.56-6.21,12.99-12.57,19.17-19.16
		c5.43-5.79,8.55-12.65,8.48-20.88c-0.15-17.55-0.06-35.1-0.01-52.65c0.01-3.32,0.08-7.28-4.09-7.37c-4.75-0.1-4.45,4.27-4.46,7.64
		c-0.06,16.61-0.03,33.21-0.05,49.82c-0.01,8.34-2.3,15.59-9.72,20.4c0-0.19-0.07-0.45,0.02-0.56c8.89-9.94,8.08-22.03,7.85-34.11
		c-0.24-12.45-0.01-24.9-0.07-37.36c-0.02-3.84,1.08-6.76,5.31-7.31c3.7-0.48,6.24,0.54,6.23,5.05
		c-0.09,21.32,0.18,42.64-0.21,63.96c-0.11,6.18-4.28,11.3-8.34,15.62c-6.56,6.98-13.27,13.86-20.68,20.06
		c-7.07,5.91-15.23,5.45-22.46,3.21c-14.71-4.55-29.41-9.3-43.89-14.49c-11.73-4.21-23.75-7.51-35.39-11.96
		c-3.57-1.37-5.6-3.8-5.04-7.78c0.59-4.19,3.63-4.7,7.13-4.65c4.24,0.06,8.46,1.4,11.81,3.23c8.3,4.54,17.54,5.99,26.27,8.89
		c6.55,2.17,12.87,4.95,19.48,6.94c8.15,2.46,16.1,5.63,24.31,7.88c3.48,0.95,7.49,1.13,10.55-2.19
		C190.53,232.08,192.17,231.29,193.97,231.23z"/>
	<path class="st13" d="M206.58,218.83c-3,3.77-6.07,7.46-10.26,10.01C198.48,224.21,201.7,220.67,206.58,218.83z"/>
</g>
</svg>
