<?xml version="1.0" encoding="utf-8"?>
<!-- Generator: Adobe Illustrator 25.0.1, SVG Export Plug-In . SVG Version: 6.00 Build 0)  -->
<svg version="1.1" id="Layer_1" xmlns="http://www.w3.org/2000/svg" xmlns:xlink="http://www.w3.org/1999/xlink" x="0px" y="0px"
	 viewBox="0 0 500 500" style="enable-background:new 0 0 500 500;" xml:space="preserve">
<style type="text/css">
	.st0{fill:#9A922E;}
	.st1{fill:#31302F;}
	.st2{fill:#FEFEFE;}
	.st3{clip-path:url(#SVGID_2_);fill:#F0F0F0;}
	.st4{clip-path:url(#SVGID_4_);fill:#F0F0F0;}
	.st5{clip-path:url(#SVGID_6_);fill:#F0F0F0;}
	.st6{fill:#7E7621;}
	.st7{fill:#7B7424;}
	.st8{fill:#908828;}
	.st9{fill:#FFFFFF;}
	.st10{clip-path:url(#SVGID_8_);fill:#F0F0F0;}
	.st11{fill:#A29A31;}
	.st12{fill:#323131;}
	.st13{fill:#F0F0F0;}
	.st14{fill:#FFFEFE;}
	.st15{fill:#383838;}
</style>
<g>
	<path class="st0" d="M199.93,439.92c-5.74,12.39-20.46,22.64-32.07,21.13c-6.27-0.81-12.27-3.77-18.42-5.65
		c-5.56-1.7-10.63-4.11-14.53-8.84c-1.96-2.38-2.84-5.32-4.57-8.18c-4.2,4.04-8.26,8.21-12.59,12.04
		c-6.35,5.62-13.3,8.14-21.81,5.19c-10.03-3.48-20.24-6.43-29.97-10.75c-5.93-2.63-9.07-8.15-10.44-14.48
		c-0.55-2.51-1.36-3.34-3.6-3.03c-11.42,1.55-21.36-3.93-31.64-7.52c-2.56-0.9-5.23-1.63-7.77-2.88
		c-7.47-3.68-11.36-9.94-12.04-18.06c-0.63-7.55-0.07-15.2-0.2-22.81c-0.16-8.92,3.04-16.33,8.98-22.54
		c25.08-26.23,50.53-52.09,75.18-78.75c14.73-15.94,30.07-31.24,44.58-47.39c5.51-6.13,11.5-11.75,16.84-18.05
		c1.58-1.86,2.02-2.69-0.59-4.11c-2.51-1.36-5.23-1.75-7.79-2.88c-8.37-3.7-13.94-11.38-14.08-20.79
		c-0.09-6.31,0.15-12.63-0.06-18.93c-0.34-9.99,3.19-18.37,9.76-25.29c18.11-19.1,36.41-38.01,54.59-57.04
		c7.07-7.4,15.59-10.47,25.54-10.43c31.81,0.14,63.62-0.04,95.43,0.13c5.54,0.03,9.85-1.66,13.61-5.87
		c4.86-5.44,10.25-10.38,15.03-15.89c8.84-10.17,19.09-11.49,31.09-7.03c17.69,6.57,35.58,12.53,53.38,18.78
		c13.41,4.71,26.76,9.61,40.22,14.16c8.21,2.78,16.5,5.29,24.53,8.61c8.45,3.48,12.73,10.47,12.9,19.44
		c0.29,15.02,0.87,30.07-0.41,45.1c-0.7,8.17-4.47,14.62-9.82,20.23c-17.74,18.57-35.53,37.1-53.33,55.6
		c-2.61,2.71-4.81,5.44-4.23,9.67c2.33,17.04-5.31,29.69-16.3,41.12c-52.92,55.05-105.75,110.21-158.57,165.37
		c-8.87,9.26-19.14,9.3-32.17,4.16c-5.66-2.23-11.34-4.27-15.06-9.71c-1.31-1.93-2.04-0.05-2.89,0.57
		C204.32,436.05,203.12,439.28,199.93,439.92c0.44-3.52,5.41-9.59,8.2-10c1.95-0.28,3.19,1,4.37,2.3
		c7.33,8.05,17.21,9.91,26.97,11.57c4.34,0.74,8.44-1.69,12.05-4.37c4.06-3.02,7.52-6.76,11.02-10.42
		c43.46-45.29,87.01-90.49,130.25-136.01c9.47-9.96,19.61-19.27,27.87-30.53c4.77-6.5,7.44-13.32,7.63-21.35
		c0.06-2.26,0.12-4.54,0-6.79c-0.28-5.72,1.76-10.22,5.68-14.25c17.32-17.87,34.37-36.01,51.77-53.79
		c7.33-7.49,11.04-15.97,10.64-26.8c-0.43-11.79-0.08-23.62-0.1-35.43c-0.02-9.48-3.82-15.62-12.42-18.91
		c-14.85-5.68-29.96-10.63-44.97-15.84c-18.25-6.33-36.44-12.82-54.72-19.06c-7.08-2.42-14.24-4.57-21.25-7.16
		c-7.77-2.87-14.36-0.48-20.36,4.51c-4.74,3.94-9.13,8.4-12.92,13.26c-7.71,9.84-17.06,13.22-29.32,12.88
		c-29.92-0.83-59.89-0.17-89.83-0.34c-7.83-0.04-14.19,2.84-19.6,8.44c-18.39,19.01-36.68,38.12-54.88,57.32
		c-6.15,6.48-9.57,13.69-9.14,22.93c0.29,6.3,0.02,12.62,0.07,18.93c0.07,9.28,4.01,15.14,12.34,18.52c2.46,1,5.04,1.67,7.46,2.75
		c4.91,2.19,5.46,4.56,2.13,8.79c-1.18,1.5-2.52,2.86-3.83,4.23c-6.58,6.87-13.21,13.69-19.74,20.6
		C87.73,275.65,50.25,315.51,12.2,354.76c-6.1,6.29-8.82,13.96-9.08,22.68c-0.18,5.98-0.12,11.97-0.01,17.96
		c0.16,9.53,4.4,16.08,12.83,19.33c8.44,3.25,16.98,6.22,25.54,9.12c3.48,1.18,7.07,0.91,10.62,0.59c3.12-0.28,5.17,0.93,5.93,4.09
		c2.17,8.98,8.09,13.69,16.24,16.27c7.12,2.25,14.1,5.07,21.27,7.1c8.04,2.26,15.71,1.36,21.87-5.49c2.65-2.95,5.35-5.87,8.28-8.52
		c3.8-3.44,6.41-3.3,8.55,1.29c3.53,7.55,9.4,11.25,16.82,13.24c4.35,1.17,8.54,2.93,12.82,4.38c9.2,3.13,16.77,0.15,23.29-6.61
		c2.64-2.74,5.26-5.5,8-8.12C196.48,440.84,197.67,439,199.93,439.92z"/>
	<path class="st1" d="M199.93,439.92c-3.89,2.45-6.6,6.24-9.8,9.47c-3.89,3.93-7.81,7.6-13.25,9.43
		c-5.46,1.84-10.46,0.42-15.47-1.02c-5.18-1.49-10.13-3.82-15.28-5.46c-5.87-1.87-9.91-5.61-12.48-11.39
		c-2.59-5.8-3.04-5.82-7.59-1.21c-2.23,2.25-4.49,4.48-6.58,6.86c-7.56,8.63-16.59,9.72-26.73,6.06
		c-6.84-2.47-13.72-4.85-20.67-6.99c-8.5-2.61-13.71-8.29-15.65-17.24c-0.33-1.49-0.58-3.25-2.45-2.72
		c-8.41,2.39-15.82-1.46-23.43-3.91c-5.3-1.7-10.4-4.09-15.71-5.79c-7.8-2.5-11.85-8.65-12.86-16.23
		c-1.2-9.08-0.96-18.42,0.02-27.59c0.85-8.02,4.85-14.36,10.32-20.01c24.66-25.51,49.56-50.79,73.62-76.9
		c19.98-21.68,40.67-42.61,60.72-64.2c4.68-5.04,4.33-6.05-2.4-8.05c-6.93-2.06-13.49-4.62-16.98-12.14
		c-1.27-2.73-1.92-5.45-1.93-8.37c-0.04-8.09,0-16.18,0.04-24.27c0.03-6.98,2.59-12.99,7.2-17.85
		c19.18-20.23,38.43-40.39,57.79-60.44c5.47-5.66,12.19-8.4,20.09-8.37c33.05,0.13,66.11-0.05,99.16,0.13
		c5.28,0.03,9.2-1.87,12.74-5.67c5.72-6.14,11.64-12.09,17.42-18.18c7.62-8.03,16.5-9.23,26.46-5.72
		c19.99,7.04,40.02,13.94,60.02,20.94c20.28,7.1,40.69,13.86,60.74,21.6c6.29,2.43,10.76,8.38,10.86,16.13
		c0.2,15.05,0.27,30.11-0.05,45.15c-0.16,7.33-3.54,13.51-8.52,18.7c-17.88,18.65-35.64,37.42-53.7,55.89
		c-4.25,4.34-6.32,8.98-5.8,15.04c1.09,12.92-3.32,23.29-11.95,32.72c-20.35,22.22-41.37,43.73-62.14,65.5
		c-30.75,32.23-61.64,64.33-92.47,96.48c-2.3,2.4-4.62,4.78-6.93,7.18c-8.36,8.71-17.94,9.69-28.61,5.29
		c-6.46-2.67-13.4-4.3-17.58-10.92c-0.87-1.37-1.99-1.36-3.07-0.12C204.69,434.46,201.64,436.56,199.93,439.92L199.93,439.92z"/>
	<path class="st2" d="M424.83,212.87c0-6.19-0.02-11.33,0.01-16.48c0.01-2.81-0.42-5.55-3.78-5.42c-3.11,0.12-3.31,2.97-3.33,5.43
		c-0.11,14.08-0.34,28.16-0.13,42.24c0.12,7.95-2.48,14.03-7.84,19.79C356.82,315.34,302.39,370.68,248.89,427
		c-4.58,4.82-9.06,7.56-15.56,4.17c-2.59-1.35-5.65-1.68-8.35-2.85c-3.32-1.44-5.73-3.73-5.54-8.04c0.16-3.55,0.11-7.12-0.01-10.68
		c-0.19-5.37,1.79-9.65,5.39-13.39c19.78-20.57,39.51-41.19,59.24-61.8c2.04-2.13,5.3-4.6,2.57-7.64c-3-3.35-5.56,0.09-7.72,2.33
		c-19.79,20.56-39.53,41.17-59.34,61.71c-3.75,3.89-6.36,8.46-7.28,13.76c-0.57,3.31-2.09,5.51-4.22,7.72
		c-9.8,10.11-19.56,20.28-29.24,30.51c-3.36,3.55-7.02,5.06-11.73,3.34c-6.12-2.24-12.31-4.28-18.43-6.51
		c-3.1-1.13-4.69-3.52-4.7-6.98c0-7.61-0.11-15.21,0.05-22.82c0.11-5.4,3.33-9.19,6.78-12.78c25.97-27.05,51.92-54.12,77.88-81.18
		c0.55-0.57,1.08-1.16,1.65-1.71c2.01-1.93,3.44-4.45,1.23-6.68c-2.21-2.22-4.53-0.55-6.44,1.44
		c-27.28,28.44-54.59,56.85-81.87,85.3c-2.99,3.12-5.16,6.82-5.83,11.29c-0.62,4.16-2.55,7.38-5.51,10.3
		c-7.33,7.22-14.53,14.6-21.5,22.2c-3.9,4.25-8.25,4.78-13.16,3.12c-7.63-2.59-15.21-5.37-22.81-8.06
		c-3.77-1.33-5.97-3.98-6.01-8.19c-0.07-7.12-0.16-14.25,0.04-21.36c0.14-5.09,2.66-9.11,6.06-12.65
		c30.25-31.5,60.47-63.04,90.7-94.56c1.42-1.49,2.83-2.98,4.23-4.49c1.59-1.71,2.19-3.91,0.62-5.63c-1.76-1.94-3.99-1.29-5.77,0.48
		c-3.14,3.13-6.26,6.27-9.33,9.47c-28.39,29.61-56.76,59.25-85.17,88.85c-4.26,4.44-7.27,9.32-8.32,15.75
		c-1.39,8.47-11.63,14.11-19.54,11.4c-7.04-2.42-14.11-4.75-21.18-7.09c-4.66-1.54-7.29-4.6-7.23-9.91
		c0.07-6.15-0.02-12.3,0.03-18.45c0.05-6,2.58-10.7,6.63-14.91c27.49-28.53,55.26-56.77,82.22-85.84
		c41.82-45.1,84.95-88.82,127.19-133.47c0.97-1.02,2.15-1.87,2.59-3.36c0.5-1.67,0.5-3.23-0.87-4.44c-1.4-1.25-2.94-1.06-4.24,0.11
		c-2.23,2-4.41,4.08-6.49,6.24c-16.7,17.37-33.44,34.71-49.98,52.24c-2.99,3.16-5.35,4.36-9.63,2.34
		c-5.88-2.78-12.2-4.54-18.37-6.63c-3.58-1.21-5.35-3.71-5.37-7.55c-0.03-7.44-0.03-14.89,0.04-22.33c0.04-4.24,1.7-7.82,4.55-10.8
		c18.87-19.69,37.73-39.39,56.64-59.04c3.68-3.82,8.18-5.4,13.45-5.39c32.59,0.1,65.18-0.1,97.77,0.16
		c8.69,0.07,15.59-2.95,21.5-9.36c5.7-6.18,11.61-12.15,17.45-18.2c3.2-3.31,6.66-4.66,11.33-2.99
		c18.11,6.48,36.31,12.69,54.49,18.97c19.35,6.69,38.71,13.35,58.07,20.01c2.49,0.86,5.07,1.5,7.49,2.55
		c3.87,1.67,6.11,4.43,6.04,9.24c-0.19,12.78-0.13,25.57-0.03,38.35c0.04,4.64-1.4,8.67-4.43,11.85
		c-18.04,18.95-36.18,37.8-54.3,56.66C426.9,211.55,426.34,211.82,424.83,212.87z"/>
	<g>
		<defs>
			<path id="SVGID_1_" d="M166.23,198.22v-33.05c0-2.95,1.76-5.58,4.42-6.59l58.65-22.36L166.23,198.22z"/>
		</defs>
		<clipPath id="SVGID_2_">
			<use xlink:href="#SVGID_1_"  style="overflow:visible;"/>
		</clipPath>
		<path class="st3" d="M424.63,213.06c0-6.19-0.02-11.33,0.01-16.48c0.01-2.81-0.42-5.55-3.78-5.42c-3.11,0.12-3.31,2.97-3.33,5.43
			c-0.11,14.08-0.34,28.16-0.13,42.24c0.12,7.95-2.48,14.03-7.84,19.79c-52.94,56.9-107.37,112.24-160.86,168.56
			c-4.58,4.82-9.06,7.56-15.56,4.18c-2.59-1.35-5.65-1.68-8.35-2.85c-3.32-1.44-5.73-3.73-5.54-8.03c0.16-3.55,0.11-7.12-0.01-10.68
			c-0.19-5.37,1.79-9.65,5.39-13.39c19.78-20.57,39.51-41.19,59.24-61.8c2.04-2.13,5.3-4.6,2.57-7.64c-3-3.35-5.56,0.09-7.72,2.33
			c-19.79,20.56-39.53,41.17-59.34,61.7c-3.75,3.89-6.36,8.46-7.28,13.76c-0.57,3.31-2.09,5.51-4.22,7.72
			c-9.8,10.11-19.56,20.27-29.24,30.51c-3.36,3.55-7.02,5.06-11.73,3.34c-6.12-2.24-12.31-4.28-18.44-6.51
			c-3.1-1.12-4.69-3.52-4.69-6.98c0-7.61-0.11-15.21,0.05-22.82c0.11-5.4,3.33-9.19,6.78-12.78c25.97-27.05,51.92-54.12,77.88-81.18
			c0.55-0.57,1.08-1.16,1.65-1.71c2.01-1.94,3.44-4.45,1.22-6.68c-2.21-2.22-4.53-0.55-6.44,1.44
			c-27.28,28.44-54.59,56.85-81.86,85.3c-3,3.12-5.16,6.82-5.83,11.29c-0.62,4.16-2.55,7.38-5.51,10.3
			c-7.33,7.22-14.53,14.6-21.5,22.2c-3.9,4.25-8.25,4.78-13.15,3.12c-7.63-2.59-15.21-5.37-22.81-8.06
			c-3.77-1.33-5.97-3.98-6.01-8.19c-0.07-7.12-0.16-14.25,0.04-21.36c0.14-5.09,2.66-9.11,6.06-12.65
			c30.25-31.5,60.47-63.04,90.7-94.56c1.42-1.48,2.83-2.98,4.24-4.49c1.59-1.71,2.19-3.91,0.62-5.63c-1.76-1.94-3.99-1.29-5.77,0.48
			c-3.14,3.13-6.26,6.27-9.33,9.47c-28.39,29.61-56.76,59.25-85.17,88.85c-4.26,4.44-7.27,9.32-8.32,15.74
			c-1.39,8.47-11.63,14.11-19.54,11.4c-7.04-2.41-14.11-4.75-21.18-7.09c-4.66-1.54-7.29-4.6-7.23-9.91
			c0.07-6.15-0.02-12.3,0.03-18.45c0.05-6,2.58-10.7,6.64-14.91c27.49-28.53,55.26-56.78,82.21-85.84
			c41.82-45.1,84.95-88.82,127.19-133.47c0.97-1.02,2.15-1.87,2.59-3.36c0.5-1.67,0.5-3.23-0.87-4.44c-1.4-1.25-2.94-1.06-4.24,0.11
			c-2.23,2-4.41,4.08-6.49,6.24c-16.7,17.37-33.44,34.71-49.99,52.24c-2.99,3.16-5.35,4.36-9.63,2.34
			c-5.88-2.78-12.21-4.54-18.38-6.63c-3.58-1.21-5.35-3.71-5.37-7.55c-0.03-7.44-0.02-14.89,0.04-22.33
			c0.04-4.24,1.7-7.82,4.55-10.8c18.87-19.69,37.73-39.39,56.64-59.04c3.68-3.82,8.18-5.4,13.45-5.39
			c32.59,0.1,65.18-0.1,97.77,0.16c8.69,0.07,15.59-2.95,21.5-9.36c5.7-6.18,11.61-12.15,17.45-18.2c3.2-3.31,6.65-4.66,11.33-2.99
			c18.11,6.48,36.31,12.69,54.49,18.97c19.35,6.69,38.71,13.35,58.07,20.01c2.49,0.86,5.07,1.5,7.49,2.55
			c3.87,1.67,6.11,4.43,6.04,9.24c-0.19,12.78-0.13,25.57-0.03,38.35c0.04,4.64-1.4,8.67-4.43,11.85
			c-18.04,18.95-36.18,37.8-54.3,56.66C426.7,211.74,426.14,212.01,424.63,213.06z"/>
	</g>
	<g>
		<defs>
			<path id="SVGID_3_" d="M488.81,96.01l-63.36,67.42c-2.57,2.73-4,6.4-4,10.22v51.33l71.66-75.45L488.81,96.01z"/>
		</defs>
		<clipPath id="SVGID_4_">
			<use xlink:href="#SVGID_3_"  style="overflow:visible;"/>
		</clipPath>
		<path class="st4" d="M424.63,212.87c0-6.19-0.02-11.33,0.01-16.48c0.01-2.81-0.42-5.55-3.78-5.42c-3.11,0.12-3.31,2.97-3.33,5.43
			c-0.11,14.08-0.34,28.16-0.13,42.24c0.12,7.95-2.48,14.03-7.84,19.79C356.62,315.34,302.19,370.68,248.69,427
			c-4.58,4.82-9.06,7.56-15.56,4.17c-2.59-1.35-5.65-1.68-8.35-2.85c-3.32-1.44-5.73-3.73-5.54-8.04c0.16-3.55,0.11-7.12-0.01-10.68
			c-0.19-5.37,1.79-9.65,5.39-13.39c19.78-20.57,39.51-41.19,59.24-61.8c2.04-2.13,5.3-4.6,2.57-7.64c-3-3.35-5.56,0.09-7.72,2.33
			c-19.79,20.56-39.53,41.17-59.34,61.71c-3.75,3.89-6.36,8.46-7.28,13.76c-0.57,3.31-2.09,5.51-4.22,7.72
			c-9.8,10.11-19.56,20.28-29.24,30.51c-3.36,3.55-7.02,5.06-11.73,3.34c-6.12-2.24-12.31-4.28-18.44-6.51
			c-3.1-1.13-4.69-3.52-4.69-6.98c0-7.61-0.11-15.21,0.05-22.82c0.11-5.4,3.33-9.19,6.78-12.78c25.97-27.05,51.92-54.12,77.88-81.18
			c0.55-0.57,1.08-1.16,1.65-1.71c2.01-1.93,3.44-4.45,1.22-6.68c-2.21-2.22-4.53-0.55-6.44,1.44
			c-27.28,28.44-54.59,56.85-81.86,85.3c-3,3.12-5.16,6.82-5.83,11.29c-0.62,4.16-2.55,7.38-5.51,10.3
			c-7.33,7.22-14.53,14.6-21.5,22.2c-3.9,4.25-8.25,4.78-13.15,3.12c-7.63-2.59-15.21-5.37-22.81-8.06
			c-3.77-1.33-5.97-3.98-6.01-8.19c-0.07-7.12-0.16-14.25,0.04-21.36c0.14-5.09,2.66-9.11,6.06-12.65
			c30.25-31.5,60.47-63.04,90.7-94.56c1.42-1.49,2.83-2.98,4.24-4.49c1.59-1.71,2.19-3.91,0.62-5.63c-1.76-1.94-3.99-1.29-5.77,0.48
			c-3.14,3.13-6.26,6.27-9.33,9.47c-28.39,29.61-56.76,59.25-85.17,88.85c-4.26,4.44-7.27,9.32-8.32,15.75
			c-1.39,8.47-11.63,14.11-19.54,11.4c-7.04-2.42-14.11-4.75-21.18-7.09c-4.66-1.54-7.29-4.6-7.23-9.91
			c0.07-6.15-0.02-12.3,0.03-18.45c0.05-6,2.58-10.7,6.64-14.91c27.49-28.53,55.26-56.77,82.21-85.84
			c41.82-45.1,84.95-88.82,127.19-133.47c0.97-1.02,2.15-1.87,2.59-3.36c0.5-1.67,0.5-3.23-0.87-4.44c-1.4-1.25-2.94-1.06-4.24,0.11
			c-2.23,2-4.41,4.08-6.49,6.24c-16.7,17.37-33.44,34.71-49.99,52.24c-2.99,3.16-5.35,4.36-9.63,2.34
			c-5.88-2.78-12.21-4.54-18.38-6.63c-3.58-1.21-5.35-3.71-5.37-7.55c-0.03-7.44-0.02-14.89,0.04-22.33
			c0.04-4.24,1.7-7.82,4.55-10.8c18.87-19.69,37.73-39.39,56.64-59.04c3.68-3.82,8.18-5.4,13.45-5.39
			c32.59,0.1,65.18-0.1,97.77,0.16c8.69,0.07,15.59-2.95,21.5-9.36c5.7-6.18,11.61-12.15,17.45-18.2c3.2-3.31,6.65-4.66,11.33-2.99
			c18.11,6.48,36.31,12.69,54.49,18.97c19.35,6.69,38.71,13.35,58.07,20.01c2.49,0.86,5.07,1.5,7.49,2.55
			c3.87,1.67,6.11,4.43,6.04,9.24c-0.19,12.78-0.13,25.57-0.03,38.35c0.04,4.64-1.4,8.67-4.43,11.85
			c-18.04,18.95-36.18,37.8-54.3,56.66C426.7,211.55,426.14,211.82,424.63,212.87z"/>
	</g>
	<g>
		<defs>
			<path id="SVGID_5_" d="M247.54,399.08l173.91-180.23v33.01L243.99,440.01v-32.04C243.99,404.63,245.27,401.44,247.54,399.08z"/>
		</defs>
		<clipPath id="SVGID_6_">
			<use xlink:href="#SVGID_5_"  style="overflow:visible;"/>
		</clipPath>
		<path class="st5" d="M424.63,213.06c0-6.19-0.02-11.33,0.01-16.48c0.01-2.81-0.42-5.55-3.78-5.42c-3.11,0.12-3.31,2.97-3.33,5.43
			c-0.11,14.08-0.34,28.16-0.13,42.24c0.12,7.95-2.48,14.03-7.84,19.79c-52.94,56.9-107.37,112.24-160.86,168.56
			c-4.58,4.82-9.06,7.56-15.56,4.18c-2.59-1.35-5.65-1.68-8.35-2.85c-3.32-1.44-5.73-3.73-5.54-8.03c0.16-3.55,0.11-7.12-0.01-10.68
			c-0.19-5.37,1.79-9.65,5.39-13.39c19.78-20.57,39.51-41.19,59.24-61.8c2.04-2.13,5.3-4.6,2.57-7.64c-3-3.35-5.56,0.09-7.72,2.33
			c-19.79,20.56-39.53,41.17-59.34,61.7c-3.75,3.89-6.36,8.46-7.28,13.76c-0.57,3.31-2.09,5.51-4.22,7.72
			c-9.8,10.11-19.56,20.27-29.24,30.51c-3.36,3.55-7.02,5.06-11.73,3.34c-6.12-2.24-12.31-4.28-18.44-6.51
			c-3.1-1.12-4.69-3.52-4.69-6.98c0-7.61-0.11-15.21,0.05-22.82c0.11-5.4,3.33-9.19,6.78-12.78c25.97-27.05,51.92-54.12,77.88-81.18
			c0.55-0.57,1.08-1.16,1.65-1.71c2.01-1.94,3.44-4.45,1.22-6.68c-2.21-2.22-4.53-0.55-6.44,1.44
			c-27.28,28.44-54.59,56.85-81.86,85.3c-3,3.12-5.16,6.82-5.83,11.29c-0.62,4.16-2.55,7.38-5.51,10.3
			c-7.33,7.22-14.53,14.6-21.5,22.2c-3.9,4.25-8.25,4.78-13.15,3.12c-7.63-2.59-15.21-5.37-22.81-8.06
			c-3.77-1.33-5.97-3.98-6.01-8.19c-0.07-7.12-0.16-14.25,0.04-21.36c0.14-5.09,2.66-9.11,6.06-12.65
			c30.25-31.5,60.47-63.04,90.7-94.56c1.42-1.48,2.83-2.98,4.24-4.49c1.59-1.71,2.19-3.91,0.62-5.63c-1.76-1.94-3.99-1.29-5.77,0.48
			c-3.14,3.13-6.26,6.27-9.33,9.47c-28.39,29.61-56.76,59.25-85.17,88.85c-4.26,4.44-7.27,9.32-8.32,15.74
			c-1.39,8.47-11.63,14.11-19.54,11.4c-7.04-2.41-14.11-4.75-21.18-7.09c-4.66-1.54-7.29-4.6-7.23-9.91
			c0.07-6.15-0.02-12.3,0.03-18.45c0.05-6,2.58-10.7,6.64-14.91c27.49-28.53,55.26-56.78,82.21-85.84
			c41.82-45.1,84.95-88.82,127.19-133.47c0.97-1.02,2.15-1.87,2.59-3.36c0.5-1.67,0.5-3.23-0.87-4.44c-1.4-1.25-2.94-1.06-4.24,0.11
			c-2.23,2-4.41,4.08-6.49,6.24c-16.7,17.37-33.44,34.71-49.99,52.24c-2.99,3.16-5.35,4.36-9.63,2.34
			c-5.88-2.78-12.21-4.54-18.38-6.63c-3.58-1.21-5.35-3.71-5.37-7.55c-0.03-7.44-0.02-14.89,0.04-22.33
			c0.04-4.24,1.7-7.82,4.55-10.8c18.87-19.69,37.73-39.39,56.64-59.04c3.68-3.82,8.18-5.4,13.45-5.39
			c32.59,0.1,65.18-0.1,97.77,0.16c8.69,0.07,15.59-2.95,21.5-9.36c5.7-6.18,11.61-12.15,17.45-18.2c3.2-3.31,6.65-4.66,11.33-2.99
			c18.11,6.48,36.31,12.69,54.49,18.97c19.35,6.69,38.71,13.35,58.07,20.01c2.49,0.86,5.07,1.5,7.49,2.55
			c3.87,1.67,6.11,4.43,6.04,9.24c-0.19,12.78-0.13,25.57-0.03,38.35c0.04,4.64-1.4,8.67-4.43,11.85
			c-18.04,18.95-36.18,37.8-54.3,56.66C426.7,211.74,426.14,212.01,424.63,213.06z"/>
	</g>
</g>
</svg>
