<?xml version="1.0" encoding="utf-8"?>
<!-- Generator: Adobe Illustrator 25.0.1, SVG Export Plug-In . SVG Version: 6.00 Build 0)  -->
<svg version="1.1" id="Layer_1" xmlns="http://www.w3.org/2000/svg" xmlns:xlink="http://www.w3.org/1999/xlink" x="0px" y="0px"
	 viewBox="0 0 32 32" style="enable-background:new 0 0 32 32;" xml:space="preserve">
<style type="text/css">
	.st0{fill:none;}
	.st1{fill-rule:evenodd;clip-rule:evenodd;}
</style>
<g transform="translate(-1285 -708)">
	<rect x="1285" y="708" class="st0" width="32" height="32"/>
	<path class="st1" d="M1299,720h4v-4h-4V720z M1301,736c-6.6,0-12-5.4-12-12s5.4-12,12-12s12,5.4,12,12S1307.6,736,1301,736z
		 M1301,710c-7.7,0-14,6.3-14,14s6.3,14,14,14s14-6.3,14-14S1308.7,710,1301,710z M1299,732h4v-10h-4V732z"/>
</g>
</svg>
