<svg id="Layer_1" data-name="Layer 1" xmlns="http://www.w3.org/2000/svg" viewBox="0 0 250 250"><defs><style>.cls-1{fill:#fff;fill-rule:evenodd;}</style></defs><path class="cls-1" d="M10.14,217.18a8.93,8.93,0,0,0-6,16.42s60.49,37,100.86-10.74c25.23-29.86,25.44-57,16.16-74.9-9.17-17.67-27.92-27.1-45.3-24.13-11.62,2-22.93,9.35-30.33,24.08-6.24,12.42-5,23.31-2.65,33.33.89,3.85,2,7.52,2.49,11.07a14,14,0,0,1-.29,6.8C40.79,211.47,24.91,219.29,10.14,217.18ZM110.56,104.31l67.25-67.24a5.78,5.78,0,0,1,8.16,0L215.7,66.8a5.78,5.78,0,0,1,0,8.16l-68.37,68.38a5.79,5.79,0,0,1-9.32-1.67q-.47-1-1-1.92a64.08,64.08,0,0,0-25.23-26.34A5.76,5.76,0,0,1,110.56,104.31Zm88-79.88a5.77,5.77,0,0,1,0-8.16L206.93,8A17.87,17.87,0,0,1,232.27,8L244.73,20.5a17.86,17.86,0,0,1,.09,25.34l-8.32,8.32a5.76,5.76,0,0,1-8.16,0Z"/></svg>