<svg id="Layer_1" data-name="Layer 1" xmlns="http://www.w3.org/2000/svg" viewBox="0 0 250 250"><defs><style>.cls-1{fill:#fff;}</style></defs><path class="cls-1" d="M123.31,67A58.22,58.22,0,1,0,183,125.86V125a58,58,0,0,0-58-58C124.44,67,123.87,67,123.31,67ZM125,72.55V177.46a52.46,52.46,0,0,1,0-104.91Z"/><path class="cls-1" d="M209.47,36.6l-29,29a2.78,2.78,0,0,0,3.94,3.93l29-29a2.78,2.78,0,0,0-3.93-3.93Z"/><path class="cls-1" d="M247.24,122.22h-41a2.78,2.78,0,0,0,0,5.56h41a2.78,2.78,0,0,0,0-5.56Z"/><path class="cls-1" d="M213.4,209.47l-29-29a2.78,2.78,0,0,0-3.94,3.93l29,29a2.78,2.78,0,0,0,3.93-3.93Z"/><path class="cls-1" d="M127.78,247.24v-41a2.78,2.78,0,1,0-5.56,0v41a2.78,2.78,0,0,0,5.56,0Z"/><path class="cls-1" d="M40.53,213.4l29-29a2.78,2.78,0,0,0-3.92-3.93l-29,29a2.78,2.78,0,0,0,3.93,3.93Z"/><path class="cls-1" d="M2.76,127.78h41a2.78,2.78,0,0,0,0-5.56h-41a2.78,2.78,0,0,0,0,5.56Z"/><path class="cls-1" d="M36.6,40.53l29,29a2.78,2.78,0,0,0,3.92-3.93l-29-29a2.78,2.78,0,0,0-3.93,3.93Z"/><path class="cls-1" d="M122.22,2.76v41a2.78,2.78,0,0,0,5.56,0h0v-41a2.78,2.78,0,0,0-5.56,0Z"/></svg>